inDegrees=yes
name=ik_MT_01200627-000-000_orientations_updatedTime
DataType=double
version=3
OpenSimVersion=4.5-2024-07-10-f38669b70
endheader
time	pelvis_tilt	pelvis_list	pelvis_rotation	pelvis_tx	pelvis_ty	pelvis_tz	hip_flexion_r	hip_adduction_r	hip_rotation_r	knee_angle_r	knee_angle_r_beta	ankle_angle_r	subtalar_angle_r	mtp_angle_r	hip_flexion_l	hip_adduction_l	hip_rotation_l	knee_angle_l	knee_angle_l_beta	ankle_angle_l	subtalar_angle_l	mtp_angle_l	lumbar_extension	lumbar_bending	lumbar_rotation	arm_flex_r	arm_add_r	arm_rot_r	elbow_flex_r	pro_sup_r	wrist_flex_r	wrist_dev_r	arm_flex_l	arm_add_l	arm_rot_l	elbow_flex_l	pro_sup_l	wrist_flex_l	wrist_dev_l
1747398475.503803	-0.004906223279698219	0.00282686388674271	72.50117507952331	0	0.9399999999999999	0	5.33232800290316	-2.67009518941194	0	12.46002504133451	0.2174684618522297	-1.607263953519409	0	0	5.33232800290316	-2.67009518941194	0	12.46002504133451	0.2174684618522297	-1.607263953519409	0	0	-0.01284601831601778	-0.006439034152579186	-0.005694763188912251	-0.3750933744138787	-0.1123883950120265	-0.4168466175125377	0.5990899525868864	0.5884654046229423	0	0	-0.3714880780858222	-0.1095642402405631	-0.4125031540966387	0.5924196166178277	0.5920424105685106	0	0
1747398475.513803	-0.001304312777688457	0.006113627308434326	72.47484813108264	0	0.9399999999999999	0	8.237609281166115	-3.979619779303235	0	16.67560345284928	0.291044185009155	-2.350662704804042	0	0	8.237609281166115	-3.979619779303235	0	16.67560345284928	0.291044185009155	-2.350662704804042	0	0	-0.009764482929661611	-0.00390343626595999	0.004715998002241331	-0.3841212430377955	-0.1159444421044422	-0.3924690878458184	0.5934279242951526	0.5996624493007447	0	0	-0.3832330267974059	-0.1133656271432625	-0.4117665862097496	0.5944794701277974	0.5860138001150819	0	0
1747398475.523803	-0.0005321463012919486	-0.01166364218548088	72.49455353632793	0	0.9399999999999999	0	10.76267523120489	-5.016758135754964	0	19.92939520434445	0.3478335642469788	-2.911332803144449	0	0	10.76267523120489	-5.016758135754964	0	19.92939520434445	0.3478335642469788	-2.911332803144449	0	0	0.03194162514446343	-0.001600634143849139	-0.002536735415502189	-0.4082440112618764	-0.1098649442542712	-0.3932654227672683	0.59228980507088	0.5743868286409922	0	0	-0.4050916154749022	-0.105733787646315	-0.404819915786362	0.5813977671712358	0.5785863219678334	0	0
1747398475.533803	-0.006476747006936368	0.001897342309850732	72.49022099898143	0	0.9399999999999999	0	13.11931954682146	-5.907390243468071	0	22.79212351075361	0.3977975987838597	-3.372600353974959	0	0	13.11931954682146	-5.907390243468071	0	22.79212351075361	0.3977975987838597	-3.372600353974959	0	0	-0.007471184430036547	-0.002048712254922266	0.003865813636006713	-0.3860522432956713	-0.1163247149385	-0.4042031700181365	0.5946455678545958	0.5944870520069631	0	0	-0.382853343763138	-0.1069270944949191	-0.4023993064165948	0.5951634629550927	0.5946621696110335	0	0
1747398475.543803	-0.002552066135634377	0.003967444814203337	72.48890595197754	0	0.9399999999999999	0	15.08370494898266	-6.562500963664792	0	25.03769249459227	0.4369901711325077	-3.691864871162614	0	0	15.08370494898266	-6.562500963664792	0	25.03769249459227	0.4369901711325077	-3.691864871162614	0	0	-0.003539659349544906	-0.007694130075255806	0.001062771513268414	-0.3819174784454623	-0.1052756333107644	-0.4019388008813395	0.5851040467563543	0.5858857367668834	0	0	-0.3826503478171681	-0.1116638002211255	-0.4021145702983628	0.5856026931310442	0.5849975457672312	0	0
1747398475.553803	-0.003165288679316009	-0.001413734438799455	72.49551246060518	0	0.9399999999999999	0	16.93440457162153	-7.137111724344441	0	27.12738668473085	0.4734622151102224	-3.962965470628938	0	0	16.93440457162153	-7.137111724344441	0	27.12738668473085	0.4734622151102224	-3.962965470628938	0	0	8.704416776926083e-05	-0.004309430035854166	0.0001771434931516677	-0.3792427207650667	-0.105753830862387	-0.3982812898140818	0.5804789922050833	0.5743763465948954	0	0	-0.3773308275967766	-0.1131496811678267	-0.3971920410542361	0.5810309085316282	0.5880851238090343	0	0
1747398475.563803	-0.001091171283441257	0.004962347317872231	72.48789101178794	0	0.9399999999999999	0	18.1531204198269	-7.478304392871846	0	28.4717954853535	0.4969265751738755	-4.116352241462813	0	0	18.1531204198269	-7.478304392871846	0	28.4717954853535	0.4969265751738755	-4.116352241462813	0	0	-0.002224400725832681	-0.00557206448122429	-0.001038915362958784	-0.3850376271436425	-0.09943546462826479	-0.3903077203894003	0.5836556495764673	0.5803523662249372	0	0	-0.3811317195629304	-0.1083455565799622	-0.4103544808182769	0.5849431961595586	0.5857725157743603	0	0
1747398475.573803	-0.01164175177609364	0.01212716477588313	72.4997729959599	0	0.9399999999999999	0	19.70316604224318	-7.881744050193194	0	30.15634747419227	0.5263275538001307	-4.29175349350538	0	0	19.70316604224318	-7.881744050193194	0	30.15634747419227	0.5263275538001307	-4.29175349350538	0	0	0.01529426477089057	-0.01595902378125522	-0.01043666817136123	-0.4889892543148365	-0.1281564170883503	-0.4642410091152651	0.7089938034552493	0.6873215096447284	0	0	-0.4816511792308032	-0.129023830656308	-0.4483786678470624	0.7097528991247536	0.6739725612535002	0	0
1747398475.583803	-0.005179298293011309	0.0132743123523986	72.47834513038816	0	0.9399999999999999	0	20.79538275996617	-8.139575875292412	0	31.32411346381666	0.5467089152118864	-4.398987870106547	0	0	20.79538275996617	-8.139575875292412	0	31.32411346381666	0.5467089152118864	-4.398987870106547	0	0	-0.02005051381150126	-0.01559560353759001	-0.003439934841053414	-0.3722212314322339	-0.09824571215670005	-0.381268803619873	0.5782640399887954	0.5871140688168469	0	0	-0.3668046836534763	-0.1004724932406205	-0.4051519895255749	0.5762465161228498	0.5815005618580869	0	0
1747398475.593803	-0.004270038710968202	0.0006787953076983521	72.49718021645354	0	0.9399999999999999	0	22.20099712030976	-8.445866655472827	0	32.81801144517879	0.5727823536755524	-4.521872193691276	0	0	22.20099712030976	-8.445866655472827	0	32.81801144517879	0.5727823536755524	-4.521872193691276	0	0	-0.0005889883612932802	-0.004001867921179967	-0.002161673584890413	-0.7200921064789477	-0.1954394829363689	-0.7450293907937376	1.09361219594096	1.083280241141918	0	0	-0.7072123509743463	-0.1963587060027514	-0.7334214935628559	1.085030016682869	1.085145007918865	0	0
1747398475.603803	-0.01855710249383013	0.00625341018284914	72.48124751686201	0	0.9399999999999999	0	23.64047643960021	-8.734361114550309	0	34.36544754122694	0.5997902085157999	-4.633237999596029	0	0	23.64047643960021	-8.734361114550309	0	34.36544754122694	0.5997902085157999	-4.633237999596029	0	0	-0.004044950784051697	-0.01924872203630857	0.006541224648192174	-0.3791984607384823	-0.1069923296456167	-0.3936225464137376	0.5842884517899715	0.5822885667956894	0	0	-0.3777369667706185	-0.1080340937886423	-0.4060323116368865	0.5871766544017787	0.5861402409408673	0	0
1747398475.613803	0.0009884846322069445	-0.002895632046891274	72.4866599980803	0	0.9399999999999999	0	24.44079510941691	-8.872029023962765	0	35.20519980045127	0.6144466503403253	-4.682959786082676	0	0	24.44079510941691	-8.872029023962765	0	35.20519980045127	0.6144466503403253	-4.682959786082676	0	0	0.005940534042820376	-0.005591534716516809	0.005468182568772271	-0.3897754551578525	-0.1004876961900644	-0.4005318275049621	0.583598914378895	0.5821404659323022	0	0	-0.3864284449065095	-0.1206530795032974	-0.4037112149778689	0.5865535751896102	0.5877324163497185	0	0
